<?xml version="1.0" encoding="UTF-8"?><svg id="Layer_1" xmlns="http://www.w3.org/2000/svg" viewBox="0 0 1960 760"><defs><style>.cls-1{fill:#fff;}</style></defs><path class="cls-1" d="M1223.59,344.6c0-5.06-1.4-9.13-4.2-12.2-2.8-3.06-6.6-4.6-11.4-4.6-9.87,0-18.2,5.74-25,17.2-6.8,11.47-10.2,25.34-10.2,41.6v.8c15.73-3.73,28.13-9.33,37.2-16.8,9.06-7.46,13.6-16.13,13.6-26Z"/><path class="cls-1" d="M1113.59,169c0-20.26-3.74-30.4-11.2-30.4-6.14,0-13.07,11.07-20.8,33.2-7.74,22.14-14.54,49.6-20.4,82.4-5.87,32.8-9.07,64.27-9.6,94.4,18.93-31.2,34-62.46,45.2-93.8,11.2-31.33,16.8-59.93,16.8-85.8Z"/><path class="cls-1" d="M348.4,180.6c-27.47,0-51.4,8.67-71.8,26-20.4,17.34-36.14,41.4-47.2,72.2-11.07,30.8-16.6,65.94-16.6,105.4,0,16.54,1.66,31.2,5,44,3.33,12.8,7.6,22.74,12.8,29.8,5.2,7.07,10.2,10.6,15,10.6,6.66,0,11.73-9.2,15.2-27.6l13.2-75.6c-10.4-1.6-14.94-2.26-13.6-2-8-1.33-13.2-3.8-15.6-7.4-2.4-3.6-3.6-8.2-3.6-13.8s1.66-10.53,5-14c3.33-3.46,7.93-5.2,13.8-5.2,2.66,0,4.66.14,6,.4,6.4,1.07,11.33,1.74,14.8,2,3.46-20.8,8.4-48.66,14.8-83.6,1.6-9.06,5.26-15.53,11-19.4,5.73-3.86,12.46-5.8,20.2-5.8,8.8,0,15.13,1.67,19,5,3.86,3.34,5.8,8.6,5.8,15.8,0,4.27-.27,7.74-.8,10.4l-13.2,77.6c54.66-6.93,82-35.33,82-85.2,0-17.6-5.8-31.93-17.4-43-11.6-11.06-29.54-16.6-53.8-16.6h0Z"/><path class="cls-1" d="M1960,230V69.89c0-38.6-31.29-69.89-69.89-69.89H69.89C31.29,0,0,31.29,0,69.89v160.11c82.84,0,150,67.16,150,150S82.84,530,0,530v160.11c0,38.6,31.29,69.89,69.89,69.89h1820.21c38.6,0,69.89-31.29,69.89-69.89v-160.11c-82.84,0-150-67.16-150-150s67.16-150,150-150h.01ZM1507.78,209.2c7.33-6.26,16.46-9.4,27.4-9.4,9.86,0,17.86,2.4,24,7.2,6.13,4.8,9.2,11.6,9.2,20.4,0,10.67-3.47,19.14-10.4,25.4-6.94,6.27-16.14,9.4-27.6,9.4s-19.6-2.6-25.2-7.8-8.4-12.46-8.4-21.8,3.66-17.13,11-23.4h0ZM410.4,345.4c-22.4,12-49.07,19.07-80,21.2l-17.2,96.4c-6.67,37.06-24.8,55.6-54.4,55.6-16.27,0-31.27-4.8-45-14.4-13.74-9.6-24.74-24.27-33-44-8.27-19.73-12.4-44-12.4-72.8,0-54.13,8.73-100.06,26.2-137.8,17.46-37.73,40.93-66,70.4-84.8,29.46-18.8,61.93-28.2,97.4-28.2,25.06,0,46.33,4.4,63.8,13.2,17.46,8.8,30.66,20.74,39.6,35.8,8.93,15.07,13.4,32.07,13.4,51,0,22.67-5.87,43.47-17.6,62.4-11.74,18.94-28.8,34.4-51.2,46.4h0ZM1205.19,477c-25.6,0-45.47-7.66-59.6-23-2.32-2.51-4.42-5.18-6.36-7.98-6.84,6.57-13.99,12.37-21.44,17.38-13.47,9.07-28.74,13.6-45.8,13.6-23.47,0-40.87-10.66-52.2-32-1.1-2.06-2.13-4.21-3.12-6.39-10.85,11.6-23.54,21.07-38.08,28.39-18.54,9.33-39.4,14-62.6,14-18.14,0-33.87-2.74-47.2-8.2-13.34-5.46-23.54-12.93-30.6-22.4-1.66-2.22-3.11-4.5-4.38-6.85-9.73,9.37-20.79,17.19-33.21,23.45-18.54,9.33-39.4,14-62.6,14-18.14,0-33.87-2.74-47.2-8.2-13.34-5.46-23.54-12.93-30.6-22.4-.54-.73-1.06-1.47-1.56-2.21-6.07,5.68-12.35,10.75-18.84,15.21-13.2,9.07-28.2,13.6-45,13.6-12.8,0-22.2-4.93-28.2-14.8-6-9.86-9-23.73-9-41.6-4.54,18.14-11.34,32.07-20.4,41.8-9.07,9.74-18.8,14.6-29.2,14.6-12,0-21.8-5.53-29.4-16.6-7.6-11.06-11.4-24.86-11.4-41.4,0-20,1.33-38.33,4-55,2.66-16.66,7.06-34.33,13.2-53,2.66-8,6.4-13.73,11.2-17.2,4.8-3.46,12.4-5.2,22.8-5.2,5.86,0,9.93.94,12.2,2.8,2.26,1.87,3.4,4.67,3.4,8.4,0,2.14-1.47,9.34-4.4,21.6-2.67,9.87-4.8,18.8-6.4,26.8-5.34,28-8,46.67-8,56,0,5.6.66,9.54,2,11.8,1.33,2.27,3.46,3.4,6.4,3.4,4,0,9-4,15-12s12.4-20.13,19.2-36.4c6.8-16.26,13.4-36.26,19.8-60,2.13-8,5.4-13.73,9.8-17.2,4.4-3.46,11-5.2,19.8-5.2,6.13,0,10.4.74,12.8,2.2,2.4,1.47,3.6,4.2,3.6,8.2,0,6.67-3.34,24.94-10,54.8-7.47,34.14-11.2,55.2-11.2,63.2,0,5.07,1.06,9,3.2,11.8,2.13,2.8,4.93,4.2,8.4,4.2,5.33,0,11.66-3.26,19-9.8,4.96-4.42,11.05-10.7,18.27-18.84,2.84-11.89,9.34-22.75,19.53-32.56,14.13-13.6,34.4-26.66,60.8-39.2l-65.6,1.6c-5.87.27-10.34-1.8-13.4-6.2-3.07-4.4-4.6-9.66-4.6-15.8s1.53-12.06,4.6-17c3.06-4.93,7.26-7.4,12.6-7.4,12.26,0,28.66.94,49.2,2.8,4.26.27,12.06.8,23.4,1.6,11.33.8,20.86,1.2,28.6,1.2,2.66,0,7.73-1.06,15.2-3.2,1.33-.26,3.93-.93,7.8-2,3.86-1.06,7.13-1.6,9.8-1.6,4.26,0,7.8,1.87,10.6,5.6,2.8,3.74,4.2,9.47,4.2,17.2,0,8.54-2,15.2-6,20s-10.27,9.07-18.8,12.8c-24.27,10.4-44.4,21.54-60.4,33.4-16,11.87-24,23.67-24,35.4,0,7.47,3.46,13.6,10.4,18.4,6.93,4.8,17.2,7.2,30.8,7.2,14.93,0,30.06-3.73,45.4-11.2,15.33-7.46,29.13-18.8,41.4-34,.82-.96,1.67-1.79,2.55-2.51,3.38-6.01,7.85-11.71,13.44-17.09,14.13-13.6,34.4-26.66,60.8-39.2l-65.6,1.6c-5.87.27-10.34-1.8-13.4-6.2-3.07-4.4-4.6-9.66-4.6-15.8s1.53-12.06,4.6-17c3.06-4.93,7.26-7.4,12.6-7.4,12.26,0,28.66.94,49.2,2.8,4.26.27,12.06.8,23.4,1.6,11.33.8,20.86,1.2,28.6,1.2,2.66,0,7.73-1.06,15.2-3.2,1.33-.26,3.93-.93,7.8-2,3.86-1.06,7.13-1.6,9.8-1.6,4.26,0,7.8,1.87,10.6,5.6,2.8,3.74,4.2,9.47,4.2,17.2,0,8.54-2,15.2-6,20s-10.27,9.07-18.8,12.8c-24.27,10.4-44.4,21.54-60.4,33.4-16,11.87-24,23.67-24,35.4,0,7.47,3.46,13.6,10.4,18.4,6.93,4.8,17.2,7.2,30.8,7.2,14.93,0,30.06-3.73,45.4-11.2,13.05-6.35,24.99-15.53,35.83-27.49-1.62-11.01-2.43-22.91-2.43-35.71,0-32.53,4.2-69.6,12.6-111.2,8.4-41.6,20.8-77.33,37.2-107.2,16.4-29.86,35.93-44.8,58.6-44.8,12.8,0,22.86,5.94,30.2,17.8,7.33,11.87,11,28.87,11,51,0,31.74-8.8,68.54-26.4,110.4-17.6,41.87-41.47,83.34-71.6,124.4,1.86,10.94,4.93,18.74,9.2,23.4,4.26,4.67,9.86,7,16.8,7,10.93,0,20.53-3.13,28.8-9.4,4.69-3.56,10.12-8.56,16.29-15.01-.71-5.33-1.09-10.92-1.09-16.79,0-18.4,3.86-35.53,11.6-51.4,7.73-15.86,18.46-28.46,32.2-37.8,13.73-9.33,29.26-14,46.6-14,15.46,0,27.86,4.6,37.2,13.8,9.33,9.2,14,21.67,14,37.4,0,18.4-6.6,34.2-19.8,47.4s-35.67,23.67-67.4,31.4c6.4,12.27,17.2,18.4,32.4,18.4,10.93,0,19.93-2.53,27-7.6,7.06-5.06,15.26-13.6,24.6-25.6,3.2-4,6.8-6,10.8-6,3.46,0,6.2,1.6,8.2,4.8,2,3.2,3,7.6,3,13.2,0,9.6-2.27,17.87-6.8,24.8-7.47,11.47-17.27,20.4-29.4,26.8-12.14,6.4-26.6,9.6-43.4,9.6h0ZM1300,710c0,11.05-8.95,20-20,20s-20-8.95-20-20v-60c0-11.05,8.95-20,20-20s20,8.95,20,20v60ZM1300,560c0,11.05-8.95,20-20,20s-20-8.95-20-20v-60c0-11.05,8.95-20,20-20s20,8.95,20,20v60ZM1300,260c0,11.05-8.95,20-20,20s-20-8.95-20-20v-60c0-11.05,8.95-20,20-20s20,8.95,20,20v60ZM1300,110c0,11.05-8.95,20-20,20s-20-8.95-20-20v-60c0-11.05,8.95-20,20-20s20,8.95,20,20v60ZM1789.98,440.6c-15.74,24.27-38.14,36.4-67.2,36.4-12.54,0-23.67-2.46-33.4-7.4-9.74-4.93-17.67-12.06-23.8-21.4-15.47,18.94-33.47,28.4-54,28.4-14.67,0-26.27-4.26-34.8-12.8-1.75-1.75-3.31-3.62-4.7-5.6-15.64,12.53-30.61,18.8-44.9,18.8-17.34,0-29.94-6.13-37.8-18.4-2-3.11-3.74-6.49-5.23-10.12-6.07,5.56-12.39,10.54-18.97,14.92-13.6,9.07-29.2,13.6-46.8,13.6-54.4,0-81.6-38.26-81.6-114.8,0-11.73.4-23.6,1.2-35.6h-15.6c-8,0-13.4-1.46-16.2-4.4-2.8-2.93-4.2-7.6-4.2-14,0-14.93,6-22.4,18-22.4h22.8c4.53-29.33,11.46-56.13,20.8-80.4,9.33-24.26,20.6-43.6,33.8-58s27.4-21.6,42.6-21.6c11.2,0,20,4.94,26.4,14.8,6.4,9.87,9.6,22.27,9.6,37.2,0,41.34-17.34,77.34-52,108h44.8c4.26,0,7.33.94,9.2,2.8,1.86,1.87,2.8,5.34,2.8,10.4,0,18.4-15.07,27.6-45.2,27.6h-48.8c-.54,13.34-.8,23.74-.8,31.2,0,27.74,3.26,47.2,9.8,58.4,6.53,11.2,16.86,16.8,31,16.8,11.46,0,21.6-3.46,30.4-10.4,6.08-4.79,12.93-11.24,20.54-19.34.44-10.9,1.92-24.11,4.46-39.66,3.06-18.8,7-36.33,11.8-52.6,2.4-8.53,5.6-14.4,9.6-17.6s10.4-4.8,19.2-4.8c13.6,0,20.4,4.54,20.4,13.6,0,6.67-2.54,22.14-7.6,46.4-6.4,29.34-9.6,49.2-9.6,59.6,0,8,1.06,14.14,3.2,18.4,2.13,4.27,5.73,6.4,10.8,6.4,4.8,0,10.8-3.33,18-10,2.21-2.04,4.65-4.46,7.31-7.23,1.44-7.1,4.07-13.22,7.88-18.37,6.13-8.26,14.8-12.4,26-12.4,9.6,0,14.4,3.6,14.4,10.8,0,2.14-.27,5.87-.8,11.2l-1.2,15.2c0,8,3.46,12,10.4,12,5.06,0,9.93-3,14.6-9,4.66-6,8.53-14.2,11.6-24.6,3.06-10.4,4.6-21.86,4.6-34.4,0-9.6-1.2-17.66-3.6-24.2-2.4-6.53-5.34-9.8-8.8-9.8-2.94,0-5.07.74-6.4,2.2-1.34,1.47-2.67,3.94-4,7.4-1.6,4.27-3.74,7.67-6.4,10.2-2.67,2.54-7.34,3.8-14,3.8-5.87,0-10.54-2.06-14-6.2-3.47-4.13-5.2-10.46-5.2-19,0-13.6,4.13-24.26,12.4-32,8.26-7.73,18.93-11.6,32-11.6,11.2,0,21.33,2.74,30.4,8.2,9.06,5.47,16,13.4,20.8,23.8,8-10.66,17-18.66,27-24,10-5.33,19.8-8,29.4-8,10.4,0,18.33,2.4,23.8,7.2,5.46,4.8,8.2,12.54,8.2,23.2,0,12-2.27,21.4-6.8,28.2-4.54,6.8-10,10.2-16.4,10.2-5.87,0-9.87-1.2-12-3.6-2.14-2.4-3.74-5.86-4.8-10.4-.54-3.2-1.34-5.6-2.4-7.2-1.07-1.6-2.94-2.4-5.6-2.4-3.2,0-6.6,3-10.2,9s-6.67,13.94-9.2,23.8c-2.54,9.87-3.8,20.14-3.8,30.8,0,12,2.73,21.6,8.2,28.8,5.46,7.2,12.06,10.8,19.8,10.8,14.66,0,29.2-10.53,43.6-31.6,2.66-4,6.26-6,10.8-6,3.46,0,6.2,1.6,8.2,4.8,2,3.2,3,7.6,3,13.2,0,9.6-2.27,17.87-6.8,24.8h0Z"/><path class="cls-1" d="M1426.19,234c7.86-16.93,11.8-32.33,11.8-46.2,0-15.73-2.94-23.6-8.8-23.6-4,0-8.47,5-13.4,15-4.94,10-9.6,23.87-14,41.6-4.4,17.74-8.07,37.4-11,59,15.73-13.6,27.53-28.86,35.4-45.8h0Z"/></svg>