<?xml version="1.0" encoding="UTF-8"?>
<svg id="Layer_1" data-name="Layer 1" xmlns="http://www.w3.org/2000/svg" viewBox="0 0 1960 760">
  <path d="M729.72,569.21c0,9.46,2.15,16.94,6.44,22.44,4.29,5.5,10.17,8.25,17.65,8.25,10.78,0,18.42-5.56,22.94-16.67,4.51-11.11,6.76-29.65,6.76-55.61,0-18.04-.77-33.44-2.31-46.2-34.32,29.48-51.48,58.74-51.48,87.78Z"/>
  <path d="M935.96,569.21c0,9.46,2.14,16.94,6.43,22.44,4.29,5.5,10.17,8.25,17.66,8.25,10.78,0,18.42-5.56,22.93-16.67,4.51-11.11,6.77-29.65,6.77-55.61,0-18.04-.77-33.44-2.31-46.2-34.32,29.48-51.48,58.74-51.48,87.78Z"/>
  <path d="M1960,230V69.89c0-38.6-31.29-69.89-69.89-69.89H69.89C31.29,0,0,31.29,0,69.89v160.11c82.84,0,150,67.16,150,150S82.84,530,0,530v160.11c0,38.6,31.29,69.89,69.89,69.89h1820.21c38.6,0,69.89-31.29,69.89-69.89v-160.11c-82.84,0-150-67.16-150-150s67.16-150,150-150ZM1660,50c0-11.05,8.95-20,20-20s20,8.95,20,20v60c0,11.05-8.95,20-20,20s-20-8.95-20-20v-60ZM1660,200c0-11.05,8.95-20,20-20s20,8.95,20,20v60c0,11.05-8.95,20-20,20s-20-8.95-20-20v-60ZM1464.45,216.11c4.29-4.18,9.62-6.27,16-6.27s11.99,2.09,16.17,6.27c4.18,4.18,6.27,9.57,6.27,16.17s-2.15,11.72-6.44,16.01-9.63,6.44-16,6.44-11.44-2.2-15.84-6.6c-4.4-4.4-6.6-9.68-6.6-15.84,0-6.6,2.15-11.99,6.44-16.17ZM1700,710c0,11.05-8.95,20-20,20s-20-8.95-20-20v-60c0-11.05,8.95-20,20-20s20,8.95,20,20v60ZM1700,560c0,11.05-8.95,20-20,20s-20-8.95-20-20v-60c0-11.05,8.95-20,20-20s20,8.95,20,20v60ZM1779.59,457.17c-8.91,3.63-19.2,5.45-30.86,5.45h-.66c-13.86,0-25.96-2.86-36.3-8.58-10.34-5.72-18.48-13.97-24.42-24.75-7.04,10.12-15.67,18.21-25.91,24.25-10.23,6.05-21.28,9.08-33.16,9.08-7.92,0-16.06-1.38-24.42-4.12-8.36-2.75-14.74-6.21-19.14-10.4.22-5.06,1.54-9.9,3.96-14.52,2.42-4.62,5.5-8.03,9.24-10.23,10.12,7.26,19.91,10.89,29.37,10.89,15.4,0,27.5-6.82,36.3-20.46,7.04-10.34,10.56-22.44,10.56-36.3,0-9.46-1.71-18.09-5.11-25.9-3.41-7.81-7.92-14.03-13.53-18.65-5.61-4.62-11.94-6.93-18.97-6.93-5.5,0-10.45,1.6-14.85,4.79-4.4,3.19-8.36,8.97-11.88,17.32l-24.75,57.75c-3.96,9.68-8.86,18.87-14.68,27.56-5.83,8.69-13.15,15.73-21.95,21.12-8.8,5.39-19.47,8.08-32,8.08,0,0,0,0,0,0h0s0,0,0,0c-22.88,0-37.73-10.78-44.54-32.34-3.08,5.06-6.38,9.35-9.9,12.87-5.94,5.94-12.82,10.67-20.62,14.19-7.81,3.52-16.22,5.28-25.24,5.28,0,0,0,0,0,0,0,0,0,0,0,0,0,0,0,0,0,0s0,0,0,0c-15.18,0-27.83-4.57-37.95-13.7-10.12-9.13-17.38-21.83-21.78-38.11-10.34,16.28-23.82,28.99-40.42,38.11-16.61,9.13-35.58,13.7-56.93,13.7-.1,0-.2-.01-.29-.02-.12,0-.24.02-.36.02-12.32,0-23.65-2.04-33.99-6.1-10.34-4.07-18.81-9.74-25.41-17-28.16,15.4-55.33,23.1-81.51,23.1-.04,0-.08,0-.12,0-.07,0-.13,0-.2,0-12.98,0-24.37-2.97-34.16-8.91-9.79-5.94-16.89-13.42-21.29-22.44-1.32-2.86-2.53-5.83-3.63-8.91-8.8,8.58-21.89,19.8-39.27,33.66-1.93,1.45-3.96,3.01-6.06,4.67.04.15.08.3.12.45,4.84,18.59,7.26,40.86,7.26,66.83,0,34.1-4.9,59.24-14.68,75.41-9.79,16.17-25.36,24.25-46.7,24.25-15.18,0-27.61-5.12-37.29-15.34-9.68-10.23-14.52-23.49-14.52-39.77,0-20.24,6.38-40.75,19.14-61.54,11.72-19.09,27.99-37.4,48.81-54.91,1.14-1.44,2.58-2.88,4.32-4.32.36-.29.72-.59,1.09-.89-5.73-14.14-14.33-21.22-25.84-21.22-5.72,0-11.22,1.82-16.5,5.44-5.28,3.63-11.11,9.74-17.49,18.32l-5.94,8.25c-5.06-1.1-9.79-3.19-14.19-6.27-4.4-3.08-7.48-6.71-9.24-10.89l72.93-113.19c-5.28.44-11,.83-17.16,1.16-6.16.33-11,.5-14.52.5-14.3,0-26.62-.77-36.96-2.31-2.2,28.16-12.21,54.61-30.03,79.36-14.41,20.01-33.56,38.83-57.45,56.46,3.98,17.48,5.98,37.97,5.98,61.51,0,34.1-4.9,59.24-14.69,75.41-9.79,16.17-25.36,24.25-46.69,24.25-15.18,0-27.61-5.12-37.29-15.34-9.68-10.23-14.52-23.49-14.52-39.77,0-20.24,6.38-40.75,19.14-61.54,12.76-20.79,30.91-40.65,54.45-59.56-5.72-14.52-14.41-21.78-26.07-21.78-5.72,0-11.22,1.82-16.5,5.44-5.28,3.63-11.11,9.74-17.49,18.32l-5.94,8.25c-5.06-1.1-9.79-3.19-14.19-6.27-4.4-3.08-7.48-6.71-9.24-10.89l72.93-113.19c-5.28.44-11,.83-17.16,1.16-6.16.33-11,.5-14.52.5-17.38,0-32.12-1.21-44.22-3.63.44,4.84.66,9.68.66,14.52,0,23.76-3.41,44.55-10.23,62.37-6.82,17.82-16.45,31.68-28.88,41.58-12.43,9.9-26.89,14.85-43.39,14.85h0c-21.12,0-35.42-9.24-42.9-27.72-6.16,9.02-14.08,15.9-23.76,20.62-9.68,4.73-21.12,7.09-34.32,7.09-27.94,0-47.08-11.88-57.42-35.64-3.52,6.38-7.48,11.77-11.88,16.17-5.94,5.94-12.82,10.67-20.62,14.19-7.81,3.52-16.22,5.28-25.24,5.28,0,0,0,0,0,0,0,0,0,0,0,0,0,0,0,0,0,0,0,0,0,0,0,0-31.9,0-47.84-19.58-47.84-58.74v-42.24c0-23.76-8.69-35.64-26.07-35.64-7.7,0-14.74,2.97-21.12,8.91-6.38,5.94-11.38,13.81-15.01,23.59-3.63,9.79-5.45,20.74-5.45,32.83v188.1c-2.2.66-4.62,1.21-7.26,1.65-2.64.44-5.17.66-7.59.66-5.28,0-10.34-.77-15.18-2.31v-215.16c-4.84,9.68-10.23,19.53-16.17,29.53-5.94,10.01-12.05,19.53-18.31,28.54-6.27,9.02-12.16,17.05-17.66,24.09-5.5,7.04-10.12,12.43-13.86,16.17-4.62-1.1-8.86-3.36-12.71-6.76-3.85-3.41-6.66-7.31-8.42-11.71,18.26-22,34.87-45.59,49.83-70.79,14.96-25.19,27.17-50.1,36.63-74.75,3.52-.44,8.03-.44,13.53,0,5.5.44,10.01,1.65,13.53,3.63v24.42c12.1-19.36,28.27-29.04,48.51-29.04,16.28,0,29.15,5.67,38.61,17,9.46,11.33,14.19,27.01,14.19,47.02v38.61c0,12.1,1.59,20.79,4.79,26.07,3.19,5.28,8.3,7.92,15.34,7.92,4.62,0,9.57-1.43,14.85-4.29,5.28-2.86,10.23-7.26,14.85-13.2,6.38-8.8,10.83-19.14,13.37-31.02,2.53-11.88,3.79-23.43,3.79-34.65v-48.84c1.98-.66,4.29-1.21,6.93-1.65,2.64-.44,5.39-.66,8.25-.66,5.06,0,10.01.77,14.85,2.31v76.23c0,19.14,3.08,33.06,9.24,41.74,6.16,8.69,15.84,13.04,29.04,13.04,31.46,0,47.19-22.99,47.19-68.97v-62.04c1.76-.66,3.96-1.21,6.6-1.65,2.64-.44,5.39-.66,8.25-.66,5.28,0,10.34.77,15.18,2.31v95.04c0,11.66,1.82,20.74,5.45,27.23,3.63,6.49,9.74,9.74,18.32,9.74,9.68,0,18.32-4.01,25.91-12.04,7.59-8.03,13.64-18.97,18.15-32.84,4.51-13.86,6.77-29.26,6.77-46.2,0-3.96-.22-7.59-.66-10.89-.44-3.3-.99-6.05-1.65-8.25-1.98-1.98-4.12-5.17-6.43-9.57-2.31-4.4-4.29-9.08-5.94-14.03-1.65-4.95-2.47-8.96-2.47-12.04,2.64-4.18,6.87-7.42,12.71-9.73,5.83-2.31,12.26-2.91,19.3-1.81,3.52,6.38,6.49,14.08,8.91,23.1,14.08,3.52,30.25,5.28,48.51,5.28,9.46,0,19.03-.44,28.71-1.32,9.68-.88,17.49-2.09,23.43-3.63,4.84,1.54,8.74,4.29,11.71,8.25,2.97,3.96,4.89,8.69,5.77,14.19l-53.79,81.84c4.18-1.1,8.25-1.65,12.21-1.65,12.54,0,23.32,5.06,32.34,15.18,4.57,5.13,8.6,11.35,12.1,18.66,10.44-8.21,19.82-16.8,28.15-25.75,13.2-14.19,23.32-28.71,30.36-43.56,7.04-14.85,10.45-29.09,10.23-42.73-2.42-3.3-4.79-7.2-7.1-11.72-2.31-4.51-4.18-9.07-5.61-13.69-1.43-4.62-2.15-8.47-2.15-11.55,3.74-3.52,9.35-6.38,16.83-8.58,7.48-2.2,14.19-3.08,20.13-2.64,2.86,6.6,4.84,15.18,5.94,25.74,11.22,1.98,23.54,2.97,36.96,2.97,9.46,0,19.03-.44,28.71-1.32,9.68-.88,17.49-2.09,23.43-3.63,4.84,1.54,8.75,4.29,11.71,8.25,2.97,3.96,4.89,8.69,5.78,14.19l-53.79,81.84c4.18-1.1,8.25-1.65,12.21-1.65,12.54,0,23.32,5.06,32.34,15.18,3.7,4.15,7.04,9.03,10.04,14.61,5.66-4.79,10.79-9,15.37-12.63,7.26-6.16,13.59-11.66,18.97-16.5,5.39-4.84,10.07-9.46,14.03-13.86-1.54-11.66-2.64-26.18-3.3-43.56-.66-17.38-.99-39.16-.99-65.34h.33l-.33-.33c0-19.58.22-36.19.66-49.83.44-13.64,1.32-25.08,2.64-34.32,1.32-9.24,3.02-17.1,5.12-23.6,2.09-6.49,4.79-12.38,8.08-17.65,4.84-7.92,10.83-13.64,17.99-17.16,7.15-3.52,15.01-5.28,23.59-5.28,17.16,0,30.36,7.59,39.6,22.77,9.24,15.18,13.86,35.97,13.86,62.37v.33c0,35.86-6.76,69.79-20.29,101.81-13.53,32.01-32.07,59.9-55.61,83.65.88,3.3,1.98,6.38,3.3,9.24,3.08,7.26,7.59,12.71,13.53,16.33,5.91,3.61,12.69,5.42,20.34,5.44,10.27-.02,20.59-1.34,30.97-3.96,10.45-2.64,21.61-7.37,33.5-14.19-6.6-14.52-9.9-30.8-9.9-48.84,0-13.42,2.58-25.35,7.75-35.81,5.17-10.45,12.21-18.75,21.12-24.92,8.91-6.16,18.97-9.24,30.2-9.24,9.46,0,17.93,2.2,25.41,6.6,7.48,4.4,13.42,10.34,17.82,17.82,4.4,7.48,6.6,15.95,6.6,25.41,0,14.08-4.95,27.5-14.85,40.26-9.9,12.76-24.31,24.75-43.23,35.97,8.58,7.26,20.46,10.89,35.64,10.89.05,0,.09,0,.14,0,.06,0,.12,0,.19,0,17.38,0,32.73-4.51,46.04-13.53,13.31-9.02,23.81-21.45,31.51-37.29,7.7-15.84,11.55-33.99,11.55-54.45v-31.68h-24.42c-1.54-3.52-2.31-7.92-2.31-13.2s.77-9.68,2.31-13.2h24.42v-58.41c4.18-1.54,9.24-2.31,15.18-2.31,5.28,0,10.34.77,15.18,2.31v58.41h49.17c1.76,3.52,2.64,7.92,2.64,13.2s-.88,9.68-2.64,13.2h-49.17v68.31c0,22,3.35,38.89,10.07,50.65,6.71,11.77,16.22,17.65,28.54,17.66,4.62,0,9.57-1.43,14.85-4.29,5.28-2.86,10.23-7.26,14.85-13.2,5.5-7.48,9.51-16.06,12.04-25.74,2.53-9.68,4.12-19.47,4.79-29.37v-59.4c1.98-.66,4.29-1.21,6.93-1.65,2.64-.44,5.39-.66,8.25-.66,5.06,0,10.01.77,14.85,2.31v95.04c0,11.66,1.81,20.74,5.44,27.23,3.63,6.49,9.73,9.73,18.31,9.74,9.9,0,18.15-4.29,24.75-12.87,6.6-8.58,12.54-19.14,17.82-31.68l22.44-51.81c7.04-15.84,15.18-26.51,24.42-32.01,9.24-5.5,19.03-8.25,29.37-8.25s20.29,2.7,29.21,8.08c8.91,5.39,16.33,12.71,22.28,21.94,5.94-9.24,13.42-16.55,22.44-21.94,9.02-5.39,19.14-8.08,30.36-8.08,6.82,0,13.64.88,20.46,2.64,6.82,1.76,12.32,4.07,16.5,6.93,0,4.18-.94,8.75-2.8,13.69-1.87,4.95-4.02,8.64-6.44,11.06-5.28-1.98-10.01-3.46-14.19-4.46-4.18-.99-8.14-1.48-11.88-1.48-11.66,0-21.12,4.62-28.38,13.86-7.26,9.24-10.89,21.23-10.89,35.97,0,11.44,1.98,21.56,5.94,30.36,3.96,8.8,9.4,15.73,16.33,20.79,6.93,5.06,14.9,7.59,23.92,7.59,13.64,0,25.41-3.85,35.31-11.55,3.74,2.2,6.82,5.39,9.24,9.57,2.42,4.18,3.63,8.47,3.63,12.87-3.74,4.18-10.06,8.08-18.97,11.71Z"/>
  <path d="M1253.75,347.45c0-7.04-1.87-12.54-5.61-16.5-3.74-3.96-8.91-5.94-15.51-5.94-8.8,0-16.12,3.91-21.95,11.72-5.83,7.81-8.75,17.77-8.75,29.86,0,14.52,2.64,26.18,7.92,34.98,29.26-16.94,43.89-34.98,43.89-54.12Z"/>
  <path d="M1128.35,217.43c0-18.26-2.14-32.23-6.43-41.91-4.29-9.68-10.18-14.52-17.66-14.52-8.58,0-15.07,5.06-19.47,15.18-2.2,5.28-4.02,11.94-5.45,19.96-1.43,8.03-2.42,18.87-2.97,32.5-.55,13.64-.83,31.57-.83,53.79,0,18.7.11,34.65.33,47.85.22,13.2.55,24.53.99,33.99,14.96-17.82,27.28-39.27,36.96-64.35,9.68-25.08,14.52-52.58,14.52-82.5Z"/>
</svg>