<?xml version="1.0" encoding="UTF-8"?><svg id="Layer_1" xmlns="http://www.w3.org/2000/svg" viewBox="0 0 1960 500"><defs><style>.cls-1{fill:#fff;}</style></defs><path class="cls-1" d="M1105.73,83.52c0-21.02-3.88-31.54-11.62-31.54-6.37,0-13.56,11.48-21.58,34.45-8.03,22.97-15.08,51.46-21.17,85.49-6.09,34.03-9.41,66.68-9.96,97.94,19.64-32.37,35.28-64.8,46.89-97.32,11.62-32.51,17.43-62.18,17.43-89.02Z"/><path class="cls-1" d="M311.84,95.56c-28.5,0-53.33,8.99-74.49,26.98-21.17,17.99-37.49,42.95-48.97,74.91-11.48,31.96-17.22,68.41-17.22,109.35,0,17.16,1.73,32.37,5.19,45.65,3.46,13.28,7.89,23.59,13.28,30.92,5.4,7.33,10.58,11,15.56,11,6.91,0,12.17-9.54,15.77-28.63l13.69-78.44c-10.79-1.66-15.5-2.35-14.11-2.08-8.3-1.38-13.69-3.94-16.19-7.68-2.49-3.73-3.73-8.51-3.73-14.32s1.72-10.93,5.19-14.53c3.46-3.59,8.23-5.4,14.32-5.4,2.76,0,4.84.14,6.23.42,6.64,1.11,11.76,1.8,15.35,2.08,3.59-21.58,8.71-50.49,15.35-86.73,1.66-9.4,5.46-16.11,11.41-20.13,5.95-4.01,12.93-6.02,20.96-6.02,9.13,0,15.7,1.73,19.71,5.19,4.01,3.46,6.02,8.92,6.02,16.39,0,4.43-.28,8.03-.83,10.79l-13.7,80.51c56.71-7.19,85.08-36.66,85.08-88.4,0-18.26-6.02-33.13-18.05-44.61-12.04-11.48-30.64-17.22-55.82-17.22Z"/><path class="cls-1" d="M1219.85,265.71c0-5.25-1.45-9.47-4.36-12.66-2.91-3.18-6.85-4.77-11.83-4.77-10.24,0-18.88,5.95-25.94,17.85-7.05,11.9-10.58,26.29-10.58,43.16v.83c16.32-3.87,29.19-9.68,38.59-17.43,9.4-7.74,14.11-16.74,14.11-26.98Z"/><path class="cls-1" d="M1860,250c0-55.23,44.77-100,100-100v-84.99c0-35.91-29.11-65.01-65.01-65.01H65.01C29.11,0,0,29.11,0,65.01v84.99c55.23,0,100,44.77,100,100S55.23,350,0,350v84.99c0,35.91,29.11,65.01,65.01,65.01h1829.97c35.91,0,65.01-29.11,65.01-65.01v-84.99c-55.23,0-100-44.77-100-100ZM1554.12,125.23c7.61-6.5,17.08-9.75,28.43-9.75,10.23,0,18.53,2.49,24.9,7.47,6.36,4.98,9.54,12.03,9.54,21.17,0,11.07-3.6,19.85-10.79,26.35-7.2,6.5-16.74,9.75-28.63,9.75s-20.33-2.7-26.15-8.09c-5.81-5.4-8.71-12.93-8.71-22.62s3.8-17.77,11.41-24.28ZM376.17,266.54c-23.24,12.45-50.91,19.78-83,22l-17.84,100.01c-6.92,38.45-25.73,57.68-56.44,57.68-16.88,0-32.44-4.98-46.69-14.94-14.25-9.96-25.67-25.18-34.24-45.65-8.58-20.47-12.87-45.65-12.87-75.53,0-56.16,9.06-103.81,27.18-142.97,18.12-39.15,42.47-68.48,73.04-87.98,30.57-19.5,64.25-29.26,101.05-29.26,26,0,48.07,4.56,66.19,13.69,18.12,9.13,31.81,21.52,41.08,37.14,9.27,15.63,13.9,33.27,13.9,52.91,0,23.52-6.09,45.1-18.26,64.74-12.18,19.65-29.88,35.69-53.12,48.14ZM1276.29,365.31c-7.75,11.9-17.92,21.16-30.5,27.81-12.59,6.64-27.6,9.96-45.03,9.96-26.56,0-47.17-7.95-61.83-23.86-2.4-2.61-4.59-5.38-6.6-8.28-7.1,6.82-14.51,12.83-22.24,18.03-13.97,9.41-29.82,14.11-47.52,14.11-24.35,0-42.4-11.06-54.16-33.2-1.14-2.14-2.2-4.36-3.23-6.63-11.26,12.03-24.42,21.86-39.51,29.45-19.23,9.68-40.88,14.52-64.95,14.52-18.82,0-35.14-2.84-48.97-8.51-13.84-5.67-24.42-13.42-31.75-23.24-1.72-2.3-3.23-4.67-4.55-7.1-10.09,9.72-21.57,17.84-34.46,24.33-19.23,9.68-40.88,14.52-64.95,14.52-18.82,0-35.14-2.84-48.97-8.51-13.84-5.67-24.42-13.42-31.75-23.24-.56-.76-1.1-1.52-1.62-2.29-6.3,5.89-12.81,11.16-19.54,15.78-13.69,9.41-29.26,14.11-46.69,14.11-13.28,0-23.03-5.12-29.26-15.35-6.23-10.23-9.34-24.62-9.34-43.16-4.71,18.82-11.76,33.27-21.17,43.37-9.41,10.1-19.5,15.15-30.29,15.15-12.45,0-22.62-5.74-30.5-17.22-7.88-11.48-11.83-25.79-11.83-42.95,0-20.75,1.38-39.77,4.15-57.06,2.76-17.29,7.33-35.62,13.69-54.99,2.76-8.3,6.64-14.25,11.62-17.85,4.98-3.59,12.87-5.4,23.66-5.4,6.08,0,10.3.97,12.66,2.91,2.35,1.94,3.53,4.84,3.53,8.71,0,2.22-1.52,9.69-4.56,22.41-2.77,10.24-4.98,19.5-6.64,27.8-5.54,29.05-8.3,48.42-8.3,58.1,0,5.81.69,9.9,2.08,12.24,1.38,2.35,3.59,3.53,6.64,3.53,4.15,0,9.34-4.15,15.56-12.45,6.23-8.3,12.87-20.89,19.92-37.77,7.05-16.87,13.9-37.62,20.54-62.25,2.21-8.3,5.6-14.25,10.17-17.85,4.56-3.59,11.41-5.4,20.54-5.4,6.36,0,10.79.77,13.28,2.28,2.49,1.52,3.73,4.36,3.73,8.51,0,6.92-3.46,25.87-10.38,56.85-7.75,35.42-11.62,57.27-11.62,65.57,0,5.26,1.1,9.34,3.32,12.24,2.21,2.91,5.12,4.36,8.71,4.36,5.53,0,12.1-3.38,19.71-10.17,5.14-4.58,11.46-11.1,18.95-19.55,2.95-12.34,9.69-23.6,20.27-33.78,14.66-14.11,35.69-27.66,63.08-40.67l-68.06,1.66c-6.09.28-10.73-1.87-13.9-6.43-3.18-4.56-4.77-10.02-4.77-16.39s1.59-12.52,4.77-17.64c3.18-5.12,7.53-7.68,13.07-7.68,12.72,0,29.74.97,51.04,2.91,4.42.28,12.51.83,24.28,1.66,11.76.83,21.65,1.24,29.67,1.24,2.76,0,8.02-1.1,15.77-3.32,1.38-.27,4.08-.97,8.09-2.08,4.01-1.1,7.4-1.66,10.17-1.66,4.42,0,8.09,1.94,11,5.81,2.91,3.88,4.36,9.82,4.36,17.84,0,8.86-2.08,15.77-6.22,20.75-4.15,4.98-10.65,9.41-19.5,13.28-25.18,10.79-46.07,22.34-62.67,34.65-16.6,12.31-24.9,24.56-24.9,36.73,0,7.75,3.59,14.11,10.79,19.09,7.19,4.98,17.84,7.47,31.96,7.47,15.49,0,31.19-3.87,47.1-11.62,15.91-7.74,30.22-19.5,42.95-35.27.86-1,1.74-1.86,2.65-2.6,3.51-6.23,8.14-12.15,13.95-17.73,14.66-14.11,35.69-27.66,63.08-40.67l-68.06,1.66c-6.09.28-10.73-1.87-13.9-6.43-3.18-4.56-4.77-10.02-4.77-16.39s1.59-12.52,4.77-17.64c3.18-5.12,7.53-7.68,13.07-7.68,12.72,0,29.74.97,51.04,2.91,4.42.28,12.51.83,24.28,1.66,11.76.83,21.65,1.24,29.67,1.24,2.76,0,8.02-1.1,15.77-3.32,1.38-.27,4.08-.97,8.09-2.08,4.01-1.1,7.4-1.66,10.17-1.66,4.42,0,8.09,1.94,11,5.81,2.91,3.88,4.36,9.82,4.36,17.84,0,8.86-2.08,15.77-6.22,20.75-4.15,4.98-10.65,9.41-19.5,13.28-25.18,10.79-46.07,22.34-62.67,34.65-16.6,12.31-24.9,24.56-24.9,36.73,0,7.75,3.59,14.11,10.79,19.09,7.19,4.98,17.84,7.47,31.96,7.47,15.49,0,31.19-3.87,47.1-11.62,13.54-6.59,25.93-16.11,37.17-28.52-1.68-11.42-2.52-23.77-2.52-37.05,0-33.75,4.36-72.21,13.07-115.37,8.71-43.16,21.58-80.23,38.59-111.22,17.02-30.98,37.28-46.48,60.8-46.48,13.28,0,23.72,6.16,31.33,18.47,7.61,12.31,11.41,29.95,11.41,52.91,0,32.93-9.13,71.11-27.39,114.54-18.26,43.44-43.02,86.46-74.28,129.06,1.93,11.35,5.12,19.44,9.54,24.28,4.42,4.84,10.23,7.26,17.43,7.26,11.34,0,21.3-3.25,29.88-9.75,4.87-3.69,10.51-8.89,16.9-15.57-.74-5.53-1.13-11.32-1.13-17.42,0-19.09,4.01-36.86,12.04-53.33,8.02-16.46,19.15-29.53,33.41-39.22,14.25-9.68,30.36-14.52,48.35-14.52,16.04,0,28.91,4.77,38.59,14.32,9.68,9.54,14.53,22.48,14.53,38.8,0,19.09-6.85,35.48-20.54,49.18-13.7,13.69-37.01,24.56-69.93,32.58,6.64,12.73,17.85,19.09,33.62,19.09,11.34,0,20.68-2.63,28.01-7.89,7.33-5.25,15.83-14.11,25.52-26.56,3.32-4.15,7.05-6.23,11.21-6.23,3.59,0,6.43,1.66,8.51,4.98,2.08,3.32,3.11,7.89,3.11,13.7,0,9.96-2.35,18.54-7.06,25.73ZM1312,452c-11.05,0-20-8.95-20-20s8.95-20,20-20,20,8.95,20,20-8.95,20-20,20ZM1312,362c-11.05,0-20-8.95-20-20s8.95-20,20-20,20,8.95,20,20-8.95,20-20,20ZM1312,272c-11.05,0-20-8.95-20-20s8.95-20,20-20,20,8.95,20,20-8.95,20-20,20ZM1312,182c-11.05,0-20-8.95-20-20s8.95-20,20-20,20,8.95,20,20-8.95,20-20,20ZM1312,93c-11.05,0-20-8.95-20-20s8.95-20,20-20,20,8.95,20,20-8.95,20-20,20ZM1846.9,365.31c-16.33,25.18-39.57,37.77-69.72,37.77-13.01,0-24.56-2.56-34.65-7.68-10.1-5.12-18.33-12.51-24.69-22.2-16.05,19.65-34.72,29.47-56.02,29.47-15.22,0-27.25-4.42-36.11-13.28-1.81-1.81-3.43-3.75-4.87-5.81-16.23,13-31.75,19.51-46.58,19.51-17.99,0-31.06-6.36-39.22-19.09-2.07-3.23-3.88-6.73-5.43-10.5-6.3,5.77-12.86,10.94-19.68,15.48-14.11,9.41-30.29,14.11-48.56,14.11-56.44,0-84.66-39.7-84.66-119.1,0-12.17.42-24.49,1.25-36.94h-16.18c-8.3,0-13.9-1.52-16.81-4.56-2.91-3.04-4.36-7.89-4.36-14.53,0-15.49,6.22-23.24,18.67-23.24h23.66c4.7-30.43,11.89-58.24,21.58-83.42,9.68-25.17,21.37-45.23,35.07-60.17,13.7-14.94,28.43-22.41,44.2-22.41,11.62,0,20.75,5.12,27.39,15.35,6.64,10.24,9.96,23.1,9.96,38.59,0,42.89-17.99,80.24-53.95,112.05h46.48c4.42,0,7.61.97,9.54,2.9,1.93,1.94,2.91,5.54,2.91,10.79,0,19.09-15.63,28.64-46.89,28.64h-50.63c-.56,13.84-.83,24.63-.83,32.37,0,28.78,3.38,48.97,10.17,60.59,6.78,11.62,17.5,17.43,32.16,17.43,11.89,0,22.41-3.59,31.54-10.79,6.31-4.97,13.41-11.66,21.31-20.07.45-11.31,1.99-25.02,4.63-41.15,3.18-19.5,7.26-37.69,12.24-54.57,2.49-8.85,5.81-14.94,9.96-18.26,4.15-3.32,10.79-4.98,19.92-4.98,14.11,0,21.17,4.71,21.17,14.11,0,6.92-2.63,22.97-7.89,48.14-6.64,30.44-9.96,51.04-9.96,61.83,0,8.3,1.1,14.67,3.32,19.09,2.21,4.43,5.95,6.64,11.21,6.64,4.98,0,11.21-3.46,18.67-10.38,2.29-2.12,4.82-4.63,7.58-7.51,1.5-7.37,4.22-13.72,8.18-19.05,6.36-8.57,15.36-12.87,26.98-12.87,9.96,0,14.94,3.73,14.94,11.21,0,2.22-.28,6.09-.83,11.62l-1.24,15.77c0,8.3,3.59,12.45,10.79,12.45,5.25,0,10.3-3.11,15.15-9.34,4.84-6.23,8.85-14.73,12.03-25.52,3.18-10.79,4.77-22.68,4.77-35.69,0-9.96-1.24-18.33-3.73-25.11-2.49-6.78-5.54-10.17-9.13-10.17-3.05,0-5.26.77-6.64,2.28-1.39,1.52-2.77,4.09-4.15,7.68-1.66,4.43-3.88,7.96-6.64,10.58-2.77,2.63-7.61,3.94-14.52,3.94-6.09,0-10.93-2.14-14.53-6.43-3.6-4.29-5.39-10.85-5.39-19.71,0-14.11,4.29-25.17,12.86-33.2,8.57-8.02,19.64-12.03,33.2-12.03,11.62,0,22.13,2.84,31.54,8.51,9.4,5.67,16.6,13.9,21.58,24.69,8.3-11.06,17.64-19.36,28.01-24.9,10.38-5.53,20.54-8.3,30.5-8.3,10.79,0,19.02,2.49,24.69,7.47,5.67,4.98,8.51,13.01,8.51,24.07,0,12.45-2.35,22.2-7.05,29.26-4.71,7.06-10.38,10.58-17.01,10.58-6.09,0-10.24-1.25-12.45-3.73-2.22-2.49-3.88-6.08-4.98-10.79-.56-3.32-1.39-5.81-2.49-7.47-1.11-1.66-3.05-2.49-5.81-2.49-3.32,0-6.85,3.11-10.58,9.34-3.74,6.23-6.92,14.46-9.54,24.69-2.63,10.24-3.94,20.89-3.94,31.96,0,12.45,2.83,22.41,8.51,29.88,5.67,7.47,12.51,11.21,20.54,11.21,15.21,0,30.29-10.93,45.23-32.79,2.76-4.15,6.5-6.23,11.21-6.23,3.59,0,6.43,1.66,8.51,4.98,2.08,3.32,3.11,7.89,3.11,13.7,0,9.96-2.35,18.54-7.05,25.73Z"/><path class="cls-1" d="M1469.47,150.96c8.16-17.57,12.24-33.54,12.24-47.93,0-16.32-3.05-24.48-9.13-24.48-4.15,0-8.79,5.19-13.9,15.56-5.12,10.38-9.96,24.76-14.53,43.16-4.56,18.4-8.37,38.8-11.41,61.21,16.32-14.11,28.56-29.94,36.73-47.52Z"/></svg>